#!OML:ASF H:\Male1\Project 1\Capture day 1\Session 1\Male1.ASF
:FULLY-SPECIFIED
:DEGREES
732
root -21.2366 15.1231 -0.46667 1620.02 264.258 -184.648
lowerback 6.29652 0.770688 1.84461
upperback 6.48919 0.885526 0.25919
thorax 3.20243 0.424729 -0.799786
lowerneck -10.9688 2.30269 3.75241
upperneck 33.3222 0.830716 1.38901
head 12.9771 0.641611 -0.0871178
rclavicle -5.54112e-015 3.37934e-015
rhumerus -35.5152 8.12585 -88.0537
rradius 38.8954
rwrist -23.988
rhand -17.5404 -2.04333
rfingers 7.12502
rthumb 8.71383 -31.8435
lclavicle -5.54112e-015 3.37934e-015
lhumerus -29.4279 2.11503 83.8432
lradius 20.6087
lwrist -15.4255
lhand -15.8688 14.1432
lfingers 7.12502
lthumb 10.3268 43.8697
rfemur -6.93739 9.44988 27.3807
rtibia 29.8333
rfoot -23.0753 -22.3047
rtoes -11.0561
lfemur -20.2923 -7.25317 -19.6951
ltibia 52.6493
lfoot -15.6244 10.2541
ltoes -7.79998
733
root -21.429 15.123 -0.462116 1618.42 264.535 -182.806
lowerback 6.2139 0.824472 1.66992
upperback 6.5074 0.950947 0.159684
thorax 3.26728 0.453424 -0.80555
lowerneck -10.9022 2.32226 3.6779
upperneck 33.2873 0.84242 1.49824
head 12.9468 0.649848 -0.0308842
rclavicle 4.22417e-015 2.98177e-015
rhumerus -35.3982 8.18911 -88.065
rradius 38.9976
rwrist -24.0974
rhand -17.6552 -1.87883
rfingers 7.12502
rthumb 8.60305 -31.6835
lclavicle 4.22417e-015 2.98177e-015
lhumerus -30.5551 3.46989 82.6354
lradius 20.3476
lwrist -15.8703
lhand -15.8698 14.2631
lfingers 7.12502
lthumb 10.3258 43.9896
rfemur -6.10119 9.6402 27.3782
rtibia 29.4382
rfoot -23.6319 -22.1913
rtoes -10.8599
lfemur -21.1357 -7.51308 -19.8842
ltibia 49.1378
lfoot -16.3715 10.537
ltoes -8.98921
734
root -21.6194 15.1202 -0.457512 1617.31 264.805 -181.415
lowerback 6.0942 0.911629 1.56158
upperback 6.49715 1.06491 0.0638949
thorax 3.3256 0.509473 -0.845533
lowerneck -10.8408 2.32035 3.58642
upperneck 33.3119 0.811866 1.63559
head 12.9422 0.640526 0.03336
rclavicle -2.72087e-014 9.24349e-015
rhumerus -35.3565 7.9662 -88.0216
rradius 39.1272
rwrist -24.0214
rhand -17.7556 -1.7557
rfingers 7.12502
rthumb 8.5062 -31.5644
lclavicle -2.72087e-014 9.24349e-015
lhumerus -31.7433 4.02313 81.7099
lradius 20.4078
lwrist -15.4252
lhand -16.1037 14.1781
lfingers 7.12502
lthumb 10.1001 43.9157
rfemur -5.27526 9.78244 27.4153
rtibia 28.9161
rfoot -24.157 -22.0552
rtoes -10.5163
lfemur -21.8744 -7.90402 -19.9892
ltibia 45.5742
lfoot -16.1613 10.5026
ltoes -6.22167
735
root -21.8063 15.1387 -0.453359 1618.51 265.05 -182.376
lowerback 5.97365 0.960193 1.60633
upperback 6.49568 1.13011 0.0494293
thorax 3.39441 0.545092 -0.885462
lowerneck -10.8341 2.34525 3.63661
upperneck 33.37 0.85324 1.56027
head 12.9669 0.654184 0.00106039
rclavicle -2.5842e-015 -1.98785e-016
rhumerus -35.3551 7.79844 -87.9834
rradius 39.304
rwrist -24.0196
rhand -17.8768 -1.75295
rfingers 7.12502
rthumb 8.38921 -31.5663
lclavicle -2.5842e-015 -1.98785e-016
lhumerus -32.9181 3.88605 81.1437
lradius 20.6656
lwrist -14.164
lhand -16.4036 14.2073
lfingers 7.12502
lthumb 9.8108 43.9588
rfemur -4.39664 9.89381 27.676
rtibia 28.3408
rfoot -24.5981 -22.0312
rtoes -10.4417
lfemur -22.4349 -8.24972 -19.8925
ltibia 42.1559
lfoot -15.7379 11.3101
ltoes -5.49281
736
root -21.9897 15.1427 -0.447337 1620.41 265.29 -184.124
lowerback 5.87905 0.97902 1.64221
upperback 6.53269 1.15231 0.066104
thorax 3.48716 0.557473 -0.887064
lowerneck -10.7318 2.37503 3.74432
upperneck 33.3534 0.909972 1.43889
head 12.9404 0.674682 -0.0582218
rclavicle -1.99033e-014 4.77083e-015
rhumerus -35.3206 7.77727 -88.0023
rradius 39.418
rwrist -24.1378
rhand -17.959 -1.80298
rfingers 7.12502
rthumb 8.30993 -31.6195
lclavicle -1.99033e-014 4.77083e-015
lhumerus -33.9783 4.48565 80.3685
lradius 21.0043
lwrist -13.7422
lhand -16.4846 14.3455
lfingers 7.12502
lthumb 9.73264 44.1007
rfemur -3.38155 9.85878 27.9774
rtibia 27.6066
rfoot -22.8427 -22.5619
rtoes -15.6699
lfemur -22.8535 -8.69195 -19.7537
ltibia 39.1631
lfoot -14.8668 12.2954
ltoes -3.53058
737
root -22.1715 15.1489 -0.441405 1613.41 265.469 -176.829
lowerback 5.6056 0.939084 0.696622
upperback 6.49996 1.07412 0.00224222
thorax 3.58255 0.482805 -0.418031
lowerneck -10.5202 2.48588 3.75493
upperneck 33.3868 1.10553 1.3109
head 12.912 0.740206 -0.0850669
rclavicle 8.22472e-015 -5.56597e-015
rhumerus -35.3756 8.17372 -88.0457
rradius 39.4398
rwrist -24.2403
rhand -18.0067 -1.91392
rfingers 7.12502
rthumb 8.26385 -31.7323
lclavicle 8.22472e-015 -5.56597e-015
lhumerus -35.1179 5.10453 79.817
lradius 21.3429
lwrist -13.107
lhand -16.3012 14.3099
lfingers 7.12502
lthumb 9.90959 44.0567
rfemur -2.50516 9.79612 27.4462
rtibia 26.9007
rfoot -23.2545 -22.2329
rtoes -14.5173
lfemur -23.3584 -9.4665 -20.3614
ltibia 36.5878
lfoot -13.7768 13.8925
ltoes -1.43164
738
root -22.3484 15.1435 -0.431171 1625.35 265.79 -188.888
lowerback 5.64222 0.95026 1.38797
upperback 6.57929 1.09489 0.284058
thorax 3.65584 0.513121 -0.51446
lowerneck -10.549 2.55315 3.81893
upperneck 33.5417 1.18161 1.26916
head 12.9869 0.773711 -0.101721
rclavicle -4.89507e-015 -2.28602e-015
rhumerus -35.371 8.24782 -88.0271
rradius 39.3828
rwrist -24.1742
rhand -18.123 -1.9107
rfingers 7.12502
rthumb 8.1516 -31.7335
lclavicle -4.89507e-015 -2.28602e-015
lhumerus -36.0448 5.40529 79.3949
lradius 21.6829
lwrist -12.4881
lhand -15.982 14.2298
lfingers 7.12502
lthumb 10.2175 43.9617
rfemur -1.41026 9.6503 28.5717
rtibia 26.3235
rfoot -23.2804 -22.0736
rtoes -14.8259
lfemur -23.2683 -9.90938 -19.4434
ltibia 34.6156
lfoot -13.8115 14.9827
ltoes 1.2043
739
root -22.5216 15.1507 -0.415421 1631.49 266.024 -195.1
lowerback 5.68942 1.01788 1.64992
upperback 6.63457 1.18582 0.367098
thorax 3.69437 0.566176 -0.577572
lowerneck -10.6545 2.58915 3.9542
upperneck 33.7776 1.17612 1.25429
head 13.1142 0.784063 -0.130935
rclavicle -8.23714e-015 1.39149e-015
rhumerus -35.3687 7.90501 -87.9687
rradius 39.2862
rwrist -23.9755
rhand -18.2969 -1.70501
rfingers 7.12502
rthumb 7.98382 -31.5342
lclavicle -8.23714e-015 1.39149e-015
lhumerus -36.9227 5.68823 78.9431
lradius 22.2624
lwrist -12.088
lhand -15.6759 14.3408
lfingers 7.12502
lthumb 10.5128 44.0579
rfemur -0.589936 9.2368 29.0152
rtibia 25.9544
rfoot -22.6249 -22.3201
rtoes -19.2348
lfemur -23.0744 -10.3095 -19.1671
ltibia 33.0633
lfoot -13.5939 16.1232
ltoes 1.02302
740
root -22.6882 15.1323 -0.396587 1630.93 266.332 -194.594
lowerback 5.73342 1.04487 1.32641
upperback 6.67246 1.21128 0.32537
thorax 3.70271 0.565155 -0.440799
lowerneck -10.6145 2.67101 4.02806
upperneck 33.936 1.26093 1.24024
head 13.1772 0.824318 -0.138189
rclavicle 1.32937e-014 -9.93923e-017
rhumerus -35.3519 7.7337 -88.0091
rradius 39.1132
rwrist -23.8826
rhand -18.558 -1.55681
rfingers 7.12502
rthumb 7.73174 -31.3955
lclavicle 1.32937e-014 -9.93923e-017
lhumerus -37.4706 5.96935 78.5635
lradius 22.2391
lwrist -11.5904
lhand -15.8665 14.0114
lfingers 7.12502
lthumb 10.3289 43.7377
rfemur 0.372756 8.89117 28.8934
rtibia 25.6424
rfoot -23.5213 -21.3608
rtoes -18.0077
lfemur -22.9866 -11.0759 -19.3743
ltibia 32.1525
lfoot -14.3369 17.1014
ltoes 5.30664
741
root -22.854 15.1154 -0.374952 1632.78 266.612 -196.529
lowerback 5.68818 1.02981 1.11349
upperback 6.72679 1.18029 0.349367
thorax 3.77869 0.538981 -0.295062
lowerneck -10.4279 2.76427 4.01009
upperneck 33.9358 1.37358 1.31038
head 13.1379 0.875005 -0.0944442
rclavicle -1.40392e-014 -3.08116e-015
rhumerus -35.217 7.8263 -88.083
rradius 38.8061
rwrist -23.8537
rhand -18.7933 -1.75751
rfingers 7.12502
rthumb 7.50467 -31.6044
lclavicle -1.40392e-014 -3.08116e-015
lhumerus -37.9599 6.4032 78.263
lradius 22.2985
lwrist -11.2271
lhand -16.238 13.8941
lfingers 7.12502
lthumb 9.97053 43.6379
rfemur 1.12724 8.40669 28.8787
rtibia 25.6788
rfoot -24.2698 -20.4582
rtoes -17.4769
lfemur -22.6637 -11.7415 -19.5037
ltibia 31.5257
lfoot -14.7198 18.3886
ltoes 5.34142
742
root -23.0209 15.0888 -0.350852 1640.9 266.817 -204.777
lowerback 5.55313 1.02627 1.22515
upperback 6.82965 1.1671 0.460551
thorax 3.96262 0.533082 -0.239215
lowerneck -10.1478 2.8377 3.93213
upperneck 33.7829 1.4349 1.53653
head 13.0099 0.915689 0.0116239
rclavicle 1.19768e-014 4.12478e-015
rhumerus -35.157 7.55309 -88.0165
rradius 38.6511
rwrist -23.381
rhand -18.6424 -2.15019
rfingers 7.12502
rthumb 7.65033 -31.9918
lclavicle 1.19768e-014 4.12478e-015
lhumerus -38.2462 6.79832 78.0948
lradius 22.361
lwrist -10.9619
lhand -16.3669 14.2073
lfingers 7.12502
lthumb 9.84616 43.9571
rfemur 1.78762 7.85531 29.2081
rtibia 25.9296
rfoot -24.7529 -19.6856
rtoes -16.7968
lfemur -22.165 -12.2173 -19.3386
ltibia 31.2034
lfoot -15.5856 19.2792
ltoes 4.9273
743
root -23.1849 15.0518 -0.323736 1650.48 266.974 -214.454
lowerback 5.38296 1.01951 1.34008
upperback 6.89539 1.15222 0.529708
thorax 4.12834 0.528493 -0.228289
lowerneck -10.2137 2.95505 4.19799
upperneck 34.0744 1.53865 1.42648
head 13.1587 0.975203 -0.0623547
rclavicle 1.08229e-014 -4.09372e-015
rhumerus -35.4087 6.99825 -87.9159
rradius 38.7034
rwrist -22.7522
rhand -18.3316 -1.91963
rfingers 7.12502
rthumb 7.95028 -31.7501
lclavicle 1.08229e-014 -4.09372e-015
lhumerus -38.446 7.37381 77.7946
lradius 22.3212
lwrist -11.1896
lhand -16.2663 14.2872
lfingers 7.12502
lthumb 9.94328 44.0324
rfemur 2.27077 7.3451 29.5599
rtibia 26.4533
rfoot -23.8108 -19.7946
rtoes -16.2063
lfemur -21.4596 -12.5277 -19.2056
ltibia 31.06
lfoot -16.8062 19.4629
ltoes 6.15735
744
root -23.3492 15.0243 -0.293531 1655.86 267.296 -219.827
lowerback 5.20455 1.01098 1.04634
upperback 6.84731 1.13693 0.499258
thorax 4.17085 0.509791 -0.0928396
lowerneck -10.129 3.07214 4.37136
upperneck 34.2922 1.63661 1.4218
head 13.2415 1.03143 -0.0822815
rclavicle -1.61513e-014 1.63997e-015
rhumerus -35.7206 6.79113 -87.9257
rradius 38.6049
rwrist -22.4119
rhand -18.1596 -1.33813
rfingers 7.12502
rthumb 8.1163 -31.1623
lclavicle -1.61513e-014 1.63997e-015
lhumerus -38.7178 7.9399 77.5145
lradius 22.25
lwrist -11.5261
lhand -16.273 14.1139
lfingers 7.12502
lthumb 9.9368 43.8593
rfemur 2.57611 6.92939 29.5124
rtibia 27.2192
rfoot -23.5379 -19.5532
rtoes -17.7704
lfemur -20.8034 -12.838 -19.4432
ltibia 31.0428
lfoot -17.3583 19.5434
ltoes 7.58641
745
root -23.5119 15.0041 -0.263982 1658.96 267.719 -222.9
lowerback 4.93665 1.0793 0.619899
upperback 6.75643 1.22865 0.387158
thorax 4.21812 0.542309 0.0323518
lowerneck -9.70252 3.11152 4.47165
upperneck 34.3453 1.62572 1.52292
head 13.1744 1.04061 -0.0685062
rclavicle 8.54774e-015 -6.75868e-015
rhumerus -36.015 6.47861 -87.9639
rradius 38.4418
rwrist -21.9701
rhand -18.1555 -1.24104
rfingers 7.12502
rthumb 8.12022 -31.065
lclavicle 8.54774e-015 -6.75868e-015
lhumerus -38.918 7.89157 77.6038
lradius 22.3589
lwrist -11.1997
lhand -16.2285 14.403
lfingers 7.12502
lthumb 9.97974 44.1465
rfemur 2.67122 6.63799 29.2706
rtibia 28.3774
rfoot -23.9898 -19.0057
rtoes -19.9647
lfemur -20.1179 -12.9605 -19.8823
ltibia 30.9752
lfoot -16.0403 20.2992
ltoes 14.7714
746
root -23.6642 14.9941 -0.230229 1661.87 268.074 -225.826
lowerback 4.8181 1.05092 0.161385
upperback 6.76143 1.18667 0.251371
thorax 4.2821 0.504116 0.150951
lowerneck -9.60375 3.2155 4.74009
upperneck 34.4851 1.72714 1.41221
head 13.2238 1.09795 -0.146649
rclavicle 7.47927e-015 4.96962e-015
rhumerus -35.9855 6.24483 -88.1089
rradius 38.0973
rwrist -21.4466
rhand -18.2162 -1.26878
rfingers 7.12502
rthumb 8.06167 -31.095
lclavicle 7.47927e-015 4.96962e-015
lhumerus -38.7109 8.04968 77.6923
lradius 22.2055
lwrist -11.0252
lhand -16.6306 14.2956
lfingers 7.12502
lthumb 9.59173 44.0572
rfemur 2.58196 6.42941 28.948
rtibia 29.8699
rfoot -24.7898 -18.3074
rtoes -22.6196
lfemur -19.527 -12.925 -20.3031
ltibia 31.0106
lfoot -16.5756 21.5829
ltoes 11.5027
